<?xml version="1.0" standalone="no"?>
<!DOCTYPE svg PUBLIC "-//W3C//DTD SVG 20010904//EN"
 "http://www.w3.org/TR/2001/REC-SVG-20010904/DTD/svg10.dtd">
<svg version="1.0" xmlns="http://www.w3.org/2000/svg"
 width="300.000000pt" height="300.000000pt" viewBox="0 0 300.000000 300.000000"
 preserveAspectRatio="xMidYMid meet">
<metadata>
Created by potrace 1.10, written by Peter Selinger 2001-2011
</metadata>
<g transform="translate(0.000000,300.000000) scale(0.100000,-0.100000)"
fill="#ce0d0d" stroke="none">
<path d="M1486 2518 c-3 -24 -8 -59 -12 -78 l-6 -35 16 29 c9 15 13 33 9 39
-3 5 -1 7 5 3 6 -3 15 6 20 21 l10 28 3 -25 c4 -46 -1 -84 -13 -95 -8 -7 -9
-5 -5 7 3 10 2 20 -3 23 -11 7 -24 -38 -17 -57 3 -8 6 -6 6 5 1 10 5 16 10 13
16 -10 45 35 45 69 0 33 -28 85 -51 92 -6 2 -13 -16 -17 -39z"/>
<path d="M1462 2337 c-22 -23 -22 -27 -22 -390 l0 -367 23 -9 c12 -5 40 -6 62
-2 l40 6 0 374 0 373 -24 19 c-31 25 -53 24 -79 -4z m54 -2 c-3 -9 0 -15 10
-15 11 0 15 -6 11 -20 -3 -11 -1 -20 4 -20 17 0 -4 -31 -32 -46 -22 -11 -29
-22 -29 -45 0 -26 2 -28 19 -20 12 7 17 18 14 34 -3 16 1 26 12 31 14 5 16 2
11 -20 -4 -14 -3 -23 1 -21 5 3 7 -11 5 -31 -2 -21 -3 -46 -3 -57 0 -24 -18
-47 -31 -39 -5 3 -2 14 8 25 19 22 7 26 -20 6 -12 -8 -17 -23 -14 -41 l3 -28
27 21 c14 12 28 21 30 21 10 0 -2 -74 -14 -81 -40 -23 -50 -36 -46 -63 l3 -28
27 21 c14 12 28 21 30 21 1 0 3 -15 3 -32 0 -26 -7 -37 -32 -53 -26 -16 -32
-27 -33 -53 l0 -33 29 20 c16 12 31 21 33 21 1 0 3 -15 3 -32 0 -26 -7 -37
-32 -53 -29 -18 -32 -24 -31 -67 1 -26 5 -45 10 -42 5 3 7 11 6 19 -2 7 6 21
17 31 12 11 15 15 8 10 -9 -6 -13 -3 -13 12 0 21 17 39 26 29 13 -13 11 -97
-3 -108 -11 -10 -11 -14 -1 -21 9 -7 6 -8 -9 -5 -13 3 -26 1 -29 -4 -3 -5 -12
-5 -23 0 -15 9 -17 36 -15 353 1 189 2 348 3 355 1 6 10 9 21 6 11 -3 20 0 20
6 0 6 -9 11 -20 11 -25 0 -25 9 -2 26 23 18 46 18 38 -1z m14 -390 c-7 -8 -16
-15 -21 -15 -11 0 1 33 15 42 16 11 20 -10 6 -27z m10 -109 c0 -16 -24 -38
-33 -30 -8 9 11 44 23 44 6 0 10 -6 10 -14z"/>
<path d="M1480 2259 c0 -11 4 -18 10 -14 5 3 7 12 3 20 -7 21 -13 19 -13 -6z"/>
<path d="M1480 2128 c0 -12 3 -18 7 -14 11 10 12 36 2 36 -5 0 -9 -10 -9 -22z"/>
<path d="M1480 2000 c0 -19 3 -21 12 -12 9 9 9 15 0 24 -9 9 -12 7 -12 -12z"/>
<path d="M1480 1868 c0 -12 3 -18 7 -14 11 10 12 36 2 36 -5 0 -9 -10 -9 -22z"/>
<path d="M1480 1740 c0 -11 2 -20 4 -20 2 0 6 9 9 20 3 11 1 20 -4 20 -5 0 -9
-9 -9 -20z"/>
<path d="M1170 2284 c-6 -14 -7 -31 -3 -37 4 -6 10 -2 14 12 l9 21 20 -20 c11
-11 27 -20 35 -20 22 0 18 -18 -7 -31 -19 -10 -20 -12 -4 -21 14 -8 15 -12 5
-25 -12 -13 -14 -13 -25 2 -11 15 -14 15 -37 0 -25 -16 -25 -16 -20 6 4 14 0
25 -11 31 -20 11 -21 28 -1 28 8 0 15 5 15 10 0 13 -47 13 -55 -1 -4 -6 2 -21
14 -33 12 -13 21 -36 21 -54 0 -35 14 -41 42 -15 17 15 18 15 18 -3 -1 -67 35
-444 42 -444 5 0 7 15 4 33 -3 17 -10 97 -16 177 -6 80 -13 169 -16 199 -6 51
-6 53 14 42 36 -19 43 -14 36 27 -5 30 -2 41 15 56 26 23 19 36 -19 36 -20 0
-35 8 -46 25 -21 32 -32 32 -44 -1z"/>
<path d="M2122 2147 c-12 -13 -19 -27 -15 -30 3 -4 -1 -7 -11 -7 -9 0 -14 5
-11 10 4 6 -8 10 -29 10 -45 0 -49 -9 -26 -48 19 -32 19 -32 0 -64 -25 -41
-18 -50 31 -42 35 6 44 3 68 -20 32 -30 36 -28 46 25 5 27 13 38 36 46 16 6
29 19 29 28 0 9 -4 13 -10 10 -5 -3 -10 -2 -10 4 0 5 -9 13 -20 16 -14 4 -22
19 -26 46 -7 45 -21 49 -52 16z m38 -32 c0 -15 10 -31 26 -42 l26 -17 -83 -27
c-46 -16 -85 -28 -86 -29 -2 0 3 11 9 26 10 20 9 30 -6 55 l-17 30 43 -3 c28
-2 43 1 44 10 2 18 2 18 24 19 15 1 20 -4 20 -22z m-2 -112 c-7 -16 -13 -30
-14 -31 -2 -2 -14 4 -27 14 l-24 19 31 11 c46 17 47 17 34 -13z"/>
<path d="M1736 2111 c-9 -9 -14 -20 -11 -22 2 -3 -11 -3 -30 -1 -38 5 -48 -15
-21 -38 11 -8 12 -18 5 -36 -13 -35 -12 -37 16 -32 14 3 25 4 25 3 0 -1 -16
-70 -35 -155 -19 -84 -33 -155 -31 -158 3 -2 9 13 15 34 12 47 61 264 61 272
0 3 5 1 12 -6 20 -20 38 -14 38 12 0 15 11 32 27 44 l27 20 -32 16 c-19 10
-32 24 -32 36 0 27 -15 32 -34 11z m50 -58 c13 -5 3 -13 -36 -30 -29 -13 -53
-23 -54 -23 -1 0 -2 16 -3 35 -1 27 3 35 17 35 10 0 23 7 31 16 12 14 14 14
21 -5 4 -12 15 -24 24 -28z m-26 -53 c0 -5 -4 -10 -10 -10 -5 0 -10 5 -10 10
0 6 5 10 10 10 6 0 10 -4 10 -10z"/>
<path d="M800 1935 c0 -24 -6 -39 -20 -47 -28 -18 -25 -25 11 -33 18 -4 35
-16 41 -31 14 -29 25 -31 33 -4 4 13 18 23 36 27 38 7 43 16 19 38 -14 12 -17
25 -13 46 6 31 -4 36 -36 19 -13 -6 -24 -5 -37 5 -29 22 -34 18 -34 -20z m40
-5 c0 -7 6 -7 19 0 30 16 31 13 14 -37 -20 -60 -29 -71 -38 -44 -3 12 -13 21
-21 21 -16 0 -19 16 -4 25 6 3 10 15 10 26 0 10 5 19 10 19 6 0 10 -5 10 -10z
m55 -49 c3 -5 1 -12 -5 -16 -5 -3 -10 1 -10 9 0 18 6 21 15 7z"/>
<path d="M2083 1953 c-5 -10 -31 -89 -58 -176 l-49 -158 -44 6 c-29 4 -52 14
-68 32 -31 34 -42 24 -12 -11 16 -19 36 -29 66 -33 47 -6 57 -22 15 -24 -27
-2 -27 -2 -4 -6 16 -3 29 1 38 13 7 10 13 13 13 6 0 -6 7 -9 15 -6 10 4 12 11
7 18 -6 7 11 76 44 181 48 154 61 207 37 158z"/>
<path d="M894 1828 c3 -10 32 -58 66 -107 59 -89 69 -108 50 -96 -5 3 -18 0
-28 -6 -12 -8 -26 -9 -38 -4 -16 8 -14 10 14 13 49 5 28 22 -29 22 -46 0 -48
-1 -37 -19 7 -11 23 -24 36 -30 13 -6 20 -16 17 -21 -8 -13 36 -13 71 0 20 8
29 8 35 -2 4 -7 11 -9 15 -5 9 9 -16 38 -27 31 -5 -3 -9 4 -9 15 0 17 4 19 28
11 39 -12 122 -19 122 -10 0 5 -24 11 -52 15 -85 10 -109 16 -102 26 3 5 -1 9
-8 9 -7 0 -39 40 -72 88 -32 48 -56 79 -52 70z"/>
<path d="M1100 1813 c0 -6 8 -17 18 -24 16 -13 16 -13 2 6 -8 11 -16 22 -17
24 -2 2 -3 0 -3 -6z"/>
<path d="M1946 1797 c3 -10 9 -15 12 -12 3 3 0 11 -7 18 -10 9 -11 8 -5 -6z"/>
<path d="M1077 1768 c2 -5 17 -8 33 -8 16 0 31 3 33 8 3 4 -12 7 -33 7 -21 0
-36 -3 -33 -7z"/>
<path d="M1916 1758 c6 -10 61 -11 67 0 3 4 -12 7 -33 7 -21 1 -36 -3 -34 -7z"/>
<path d="M1141 1730 c-26 -22 -71 -26 -89 -8 -8 8 -12 8 -12 1 0 -31 71 -30
107 2 33 29 29 33 -6 5z"/>
<path d="M1890 1735 c0 -8 2 -15 4 -15 2 0 6 7 10 15 3 8 1 15 -4 15 -6 0 -10
-7 -10 -15z"/>
<path d="M1975 1714 c-13 -10 -32 -14 -55 -10 -24 4 -30 3 -20 -4 24 -15 56
-12 81 10 28 23 23 26 -6 4z"/>
<path d="M1295 1708 c-11 -6 -27 -14 -35 -18 -8 -4 -16 -17 -18 -29 -3 -16 -7
-19 -20 -13 -9 5 -28 6 -42 1 -23 -6 -23 -7 -3 -8 12 -1 25 -6 28 -12 4 -6 13
-8 21 -5 9 3 14 -1 14 -13 0 -10 12 -24 28 -31 35 -17 43 -18 66 -7 31 15 43
-9 15 -32 -35 -30 -56 -34 -88 -18 -22 11 -28 12 -25 2 3 -7 19 -15 35 -19 29
-5 55 4 101 36 14 10 20 10 30 0 11 -11 7 -19 -20 -43 -18 -16 -28 -29 -23
-29 6 0 19 9 30 21 12 13 24 18 32 13 9 -5 10 -2 6 10 -4 10 -7 19 -7 21 0 1
-16 15 -35 29 -26 20 -39 25 -52 18 -16 -10 -72 3 -74 16 -1 4 -3 21 -5 37
l-3 30 64 -3 c52 -3 66 -1 71 12 14 38 -44 59 -91 34z m70 -18 c4 -6 -14 -10
-47 -9 -42 1 -48 3 -28 9 36 12 68 12 75 0z"/>
<path d="M1589 1703 c-13 -16 -12 -17 4 -4 16 13 21 21 13 21 -2 0 -10 -8 -17
-17z"/>
<path d="M2201 1704 c-1 -12 6 -25 15 -28 13 -5 14 -3 7 6 -6 7 -13 20 -16 28
-4 10 -6 8 -6 -6z"/>
<path d="M1180 1695 c-7 -8 -19 -15 -28 -15 -8 0 -13 -3 -9 -6 9 -9 45 5 51
21 7 19 2 19 -14 0z"/>
<path d="M1681 1693 c-15 -30 5 -43 64 -43 99 0 97 45 -2 57 -44 5 -52 3 -62
-14z m84 -13 c4 -6 -8 -10 -29 -10 -20 0 -36 5 -36 10 0 6 13 10 29 10 17 0
33 -4 36 -10z"/>
<path d="M1620 1685 c-7 -8 -19 -15 -26 -15 -17 0 -18 -16 -2 -26 6 -4 8 -3 4
4 -3 6 2 13 13 17 11 3 22 12 25 20 7 19 2 19 -14 0z"/>
<path d="M2026 1683 c-6 -14 -5 -15 5 -6 7 7 10 15 7 18 -3 3 -9 -2 -12 -12z"/>
<path d="M840 1671 c0 -6 4 -13 10 -16 6 -3 7 1 4 9 -7 18 -14 21 -14 7z"/>
<path d="M2174 1655 c26 -19 50 -19 66 1 12 13 10 14 -14 3 -20 -10 -29 -10
-38 -1 -7 7 -17 12 -22 12 -6 0 -2 -7 8 -15z"/>
<path d="M809 1638 c7 -10 25 -17 40 -17 l26 2 -25 4 c-14 3 -32 10 -40 16
-13 11 -13 10 -1 -5z"/>
<path d="M1363 1643 c-40 -8 -25 -23 23 -23 32 0 44 4 42 13 -5 13 -30 17 -65
10z"/>
<path d="M1633 1643 c-24 -8 -13 -23 17 -23 17 0 30 4 30 9 0 11 -30 19 -47
14z"/>
<path d="M2031 1639 c-13 -5 -21 -12 -18 -15 3 -3 15 -1 27 6 22 12 60 5 60
-11 0 -5 -7 -9 -16 -9 -8 0 -12 5 -9 10 11 17 -11 11 -35 -10 l-23 -20 27 -10
c37 -14 39 -13 54 10 7 11 19 20 28 20 9 0 14 7 12 18 -4 20 -68 27 -107 11z"/>
<path d="M1777 1633 c-4 -3 -7 -11 -7 -17 0 -6 5 -5 12 2 6 6 9 14 7 17 -3 3
-9 2 -12 -2z"/>
<path d="M1820 1627 c8 -7 24 -25 34 -41 18 -29 18 -29 -5 -47 -13 -10 -31
-21 -40 -24 -24 -8 -69 12 -69 31 0 14 -2 14 -16 3 -9 -7 -31 -12 -48 -11 -30
2 -30 2 -8 -11 12 -7 20 -16 17 -19 -4 -3 0 -20 9 -36 18 -35 59 -52 124 -52
49 0 54 9 6 11 -56 3 -99 19 -118 45 -17 23 -17 27 -3 41 14 14 19 14 53 -2
34 -16 39 -16 68 -1 17 9 39 21 48 28 14 10 20 10 30 0 11 -11 7 -19 -20 -43
-18 -16 -28 -29 -22 -29 5 0 19 9 30 20 26 26 44 26 37 0 -8 -30 25 -43 113
-43 88 -1 100 4 100 42 0 42 -36 68 -83 60 -21 -3 -43 -11 -50 -18 -6 -6 -19
-11 -29 -11 -10 0 -18 -4 -18 -10 0 -14 22 -12 56 5 36 18 116 2 107 -21 -4
-10 -23 -14 -68 -14 -73 0 -113 12 -122 37 -9 22 -106 123 -119 123 -5 0 -2
-6 6 -13z"/>
<path d="M770 1619 c0 -5 5 -7 10 -4 6 3 10 8 10 11 0 2 -4 4 -10 4 -5 0 -10
-5 -10 -11z"/>
<path d="M2244 1619 c-3 -6 -20 -17 -38 -25 -17 -7 -24 -13 -16 -14 16 0 80
36 80 45 0 9 -19 5 -26 -6z"/>
<path d="M1300 1616 c0 -2 8 -10 18 -17 15 -13 16 -12 3 4 -13 16 -21 21 -21
13z"/>
<path d="M1705 1600 c-3 -5 2 -11 12 -12 10 -1 25 -2 33 -3 8 -1 25 -7 38 -13
14 -8 28 -10 39 -4 13 8 11 10 -11 10 -15 0 -35 7 -45 16 -20 18 -57 21 -66 6z"/>
<path d="M726 1579 c-28 -22 -45 -49 -51 -79 -7 -35 15 -151 61 -320 28 -106
43 -177 39 -193 -13 -49 58 -113 144 -132 19 -4 54 -18 79 -31 26 -14 62 -24
86 -24 23 0 73 -7 111 -15 91 -20 352 -34 435 -24 358 47 378 51 475 110 39
23 71 42 72 43 0 0 3 15 6 31 3 17 10 43 16 58 17 43 13 53 -12 29 -33 -31
-123 -68 -202 -81 -38 -7 -110 -22 -160 -34 -80 -19 -113 -21 -295 -19 -282 3
-464 23 -576 63 -135 48 -140 51 -147 104 -4 25 -10 57 -13 71 -5 21 -4 25 6
19 10 -6 12 -4 8 7 -13 31 -21 201 -10 194 6 -3 8 -19 6 -35 -6 -37 45 -96 77
-88 12 3 19 3 16 1 -3 -3 1 -21 9 -39 20 -49 19 -78 -3 -66 -41 20 -84 30 -80
18 2 -6 22 -17 44 -23 64 -19 83 -32 83 -59 0 -35 20 -74 41 -80 26 -9 37 1
44 38 8 39 33 45 110 23 27 -8 73 -17 100 -21 28 -3 58 -8 68 -11 11 -3 17 0
17 9 0 10 -11 15 -32 15 -18 0 -62 8 -98 18 -36 9 -81 17 -101 17 -36 -1 -37
0 -43 44 -8 60 -6 85 4 53 l8 -25 1 28 c1 29 25 38 35 12 3 -9 18 -15 35 -15
22 0 38 10 64 40 19 22 41 40 50 40 18 0 67 -59 67 -81 0 -12 2 -12 9 0 6 8 9
-14 10 -60 1 -103 9 -136 38 -159 29 -23 72 -26 92 -7 11 10 13 9 8 -6 -4 -10
-3 -16 1 -13 5 3 9 42 11 88 1 46 6 85 11 86 6 2 10 8 10 13 0 6 -4 7 -10 4
-6 -4 -10 5 -10 20 0 26 31 48 38 27 2 -6 12 -22 22 -34 24 -29 50 -16 62 30
9 32 39 45 53 22 3 -5 -3 -10 -14 -10 -14 0 -27 -14 -43 -50 -25 -55 -32 -60
-48 -30 -17 33 -30 23 -13 -11 8 -16 20 -28 26 -26 7 2 24 25 39 52 19 36 35
52 60 60 30 10 54 38 104 121 31 50 82 -64 83 -184 1 -49 0 -52 -22 -48 -13 2
-70 -3 -128 -11 -57 -8 -125 -16 -151 -17 -26 -1 -50 -4 -53 -8 -12 -12 64
-18 111 -9 27 5 101 15 164 21 63 6 130 16 149 22 37 11 51 1 51 -38 0 -21 17
-44 33 -44 4 0 5 5 2 10 -3 6 5 11 19 12 14 0 32 1 39 2 19 2 36 38 37 78 0
36 12 51 66 84 11 7 16 15 12 19 -4 4 -23 -4 -43 -19 -33 -26 -35 -26 -35 -7
0 12 3 21 8 21 4 0 8 15 9 33 4 84 8 117 16 117 4 0 10 -13 13 -29 4 -17 14
-32 23 -34 11 -3 9 -5 -6 -6 -12 0 -27 -10 -33 -20 -13 -25 -13 -42 1 -18 5 9
16 17 24 17 23 0 57 51 50 77 -3 13 -1 23 5 23 13 0 12 -44 -3 -105 -6 -27
-12 -68 -12 -90 0 -33 3 -40 20 -40 17 0 20 7 21 55 1 37 15 92 42 165 22 61
44 126 47 145 7 37 -11 102 -23 84 -4 -6 -16 -14 -26 -17 -10 -4 -16 -10 -13
-13 3 -3 15 0 27 6 40 22 17 -13 -24 -36 -93 -52 -338 -83 -721 -90 -154 -3
-322 -2 -372 3 -51 5 -93 6 -93 2 0 -4 19 -9 43 -12 54 -6 756 -2 782 5 11 3
49 9 85 13 78 8 250 50 289 69 l28 15 -7 -42 c-4 -23 -24 -89 -44 -147 l-36
-105 6 76 c7 84 -4 107 -32 64 -10 -15 -14 -34 -10 -50 10 -38 -18 -21 -30 18
-12 43 -40 43 -38 0 1 -18 -2 -30 -7 -27 -5 3 -9 2 -9 -3 0 -14 -20 -186 -26
-220 -12 -74 -85 -60 -98 18 l-7 42 -29 -28 c-21 -20 -34 -25 -47 -20 -10 5
-21 8 -24 7 -4 -1 -5 7 -2 16 7 27 -33 210 -52 238 -21 32 -36 21 -75 -56 -36
-71 -55 -88 -81 -72 -33 21 -48 13 -72 -34 l-24 -47 -16 24 c-10 13 -17 33
-17 44 0 21 -17 45 -32 45 -13 0 -28 -73 -28 -140 0 -71 -18 -110 -49 -110
-41 0 -65 51 -81 172 -16 119 -28 156 -55 174 -29 19 -56 8 -98 -42 -42 -51
-93 -45 -126 14 -16 29 -23 7 -32 -114 -10 -125 -19 -154 -48 -154 -25 0 -29
14 -42 128 -6 54 -15 102 -20 109 -6 7 -24 9 -43 6 -31 -5 -34 -2 -57 43 -13
27 -31 49 -39 49 -17 0 -19 -47 -8 -210 l6 -100 -19 70 c-11 39 -26 92 -34
118 -21 69 -50 226 -43 233 3 3 19 -1 35 -9 52 -27 263 -73 263 -58 0 4 -42
14 -94 22 -101 18 -206 59 -206 82 0 8 6 20 14 26 11 10 16 8 21 -9 9 -28 50
-46 120 -53 33 -3 69 -8 80 -12 18 -6 19 -6 2 5 -10 6 -48 16 -84 21 -88 12
-137 56 -98 89 11 9 19 8 37 -4 12 -9 31 -16 41 -16 22 0 81 29 74 37 -3 3
-16 -2 -29 -11 -28 -20 -58 -20 -84 -1 -25 19 -27 19 -58 -6z m1097 -263 c4
-10 0 -12 -14 -9 -10 3 -16 9 -13 14 8 13 21 11 27 -5z m-993 -29 c0 -5 -4 -5
-10 -2 -5 3 -10 14 -10 23 0 15 2 15 10 2 5 -8 10 -19 10 -23z m477 4 c15 -20
16 -31 3 -31 -5 0 -10 4 -10 9 0 5 -13 14 -30 21 -16 7 -27 16 -24 22 8 12 46
-1 61 -21z m900 -3 c-3 -8 -6 -5 -6 6 -1 11 2 17 5 13 3 -3 4 -12 1 -19z
m-911 -34 c19 -19 34 -43 34 -52 0 -11 -7 -5 -20 15 -30 50 -83 66 -113 33
-10 -12 -9 -12 6 -1 28 22 19 -1 -14 -37 -31 -33 -77 -42 -71 -14 1 6 -4 11
-10 10 -7 -2 -12 5 -12 15 2 23 -13 22 -21 -3 -9 -29 -21 -25 -19 8 2 55 3 56
31 28 19 -19 35 -26 59 -24 18 1 31 5 28 9 -6 11 48 48 70 49 10 0 34 -16 52
-36z m-378 4 c1 -7 4 -26 7 -43 l6 -30 -15 33 c-11 24 -22 32 -43 33 -26 2
-25 2 7 9 19 4 35 8 36 9 0 0 1 -5 2 -11z m612 -68 c0 -5 -7 -10 -16 -10 -8 0
-12 5 -9 10 3 6 10 10 16 10 5 0 9 -4 9 -10z m697 -22 c-3 -8 -6 -5 -6 6 -1
11 2 17 5 13 3 -3 4 -12 1 -19z m-1290 -10 c-3 -8 -6 -5 -6 6 -1 11 2 17 5 13
3 -3 4 -12 1 -19z m1290 -30 c-3 -8 -6 -5 -6 6 -1 11 2 17 5 13 3 -3 4 -12 1
-19z m-1389 -174 c36 -25 220 -83 297 -94 174 -25 248 -29 425 -21 102 5 198
14 213 20 16 6 44 11 64 11 20 0 52 4 72 10 20 5 70 17 111 26 41 9 93 25 114
35 49 23 49 23 37 0 -6 -10 -30 -29 -53 -41 -24 -12 -56 -29 -73 -39 -46 -26
-139 -45 -304 -61 -57 -6 -109 -14 -115 -17 -12 -8 -279 -5 -316 3 -47 10
-145 25 -205 31 -36 3 -83 17 -117 34 -32 16 -66 29 -77 29 -28 0 -81 32 -81
49 0 8 -3 12 -6 8 -15 -15 -34 25 -33 70 l1 48 11 -42 c7 -24 22 -50 35 -59z
m591 10 c28 2 31 0 17 -10 -22 -16 -54 -7 -67 20 -9 19 -9 19 3 4 9 -10 26
-15 47 -14z m691 -8 c0 -2 -7 -7 -16 -10 -8 -3 -12 -2 -9 4 6 10 25 14 25 6z
m-890 -72 c30 -3 66 -7 80 -9 14 -2 79 -4 145 -5 l120 -3 -85 -8 c-80 -7 -265
-3 -280 6 -4 3 -31 7 -60 11 -29 3 -64 10 -79 15 -26 9 34 6 159 -7z"/>
<path d="M1096 1591 c-3 -5 1 -11 9 -15 18 -6 45 2 45 15 0 12 -47 12 -54 0z"/>
<path d="M2148 1593 c7 -3 16 -2 19 1 4 3 -2 6 -13 5 -11 0 -14 -3 -6 -6z"/>
<path d="M2286 1585 c-3 -9 -16 -20 -28 -25 -16 -6 -18 -9 -6 -9 18 -1 48 24
48 40 0 14 -7 11 -14 -6z"/>
<path d="M1962 1565 c-11 -12 -10 -15 3 -15 8 0 15 7 15 15 0 18 -2 18 -18 0z"/>
<path d="M900 1544 c-17 -9 -20 -14 -9 -14 9 0 22 7 29 15 15 18 13 18 -20 -1z"/>
<path d="M1040 1550 c0 -5 -9 -9 -21 -7 -14 1 -27 -9 -42 -35 -20 -34 -21 -39
-6 -53 33 -33 188 -27 202 8 9 23 -12 56 -40 63 -15 4 -31 11 -34 16 -8 13
-59 20 -59 8z m47 -32 c34 -14 39 -15 61 -17 15 -1 15 -3 2 -11 -19 -12 -160
-13 -160 -1 0 12 40 41 57 41 6 0 24 -5 40 -12z"/>
<path d="M1172 1543 c-6 -3 -10 -9 -6 -14 7 -12 44 -12 44 0 0 11 -21 19 -38
14z"/>
<path d="M1287 1539 c7 -7 15 -10 18 -7 3 3 -2 9 -12 12 -14 6 -15 5 -6 -5z"/>
<path d="M1430 1540 c0 -5 9 -10 20 -10 11 0 20 5 20 10 0 6 -9 10 -20 10 -11
0 -20 -4 -20 -10z"/>
<path d="M1520 1528 c0 -5 -6 -8 -14 -5 -8 3 -17 -1 -20 -10 -8 -21 1 -30 16
-15 14 14 48 15 80 3 13 -5 32 -12 43 -16 36 -11 -5 -25 -78 -25 -61 0 -68 2
-76 23 -9 22 -9 21 -16 -6 -10 -38 7 -54 68 -61 53 -7 118 7 137 29 17 21 -10
61 -47 68 -15 3 -43 9 -60 15 -23 7 -33 7 -33 0z"/>
<path d="M920 1504 l-25 -15 25 7 c28 7 35 12 29 18 -2 2 -15 -2 -29 -10z"/>
<path d="M2157 1510 c4 -4 33 -10 63 -13 31 -4 48 -3 40 2 -20 11 -114 21
-103 11z"/>
<path d="M1202 1463 c4 -21 51 -38 127 -45 65 -6 45 8 -25 17 -27 4 -62 16
-77 27 -27 19 -29 19 -25 1z"/>
<path d="M1388 1453 c-10 -2 -18 -8 -18 -13 0 -10 38 -1 46 11 5 9 1 10 -28 2z"/>
<path d="M1892 1452 c-13 -2 -21 -9 -19 -15 4 -10 35 -11 46 -2 9 10 -7 20
-27 17z"/>
<path d="M1198 1423 c7 -3 16 -2 19 1 4 3 -2 6 -13 5 -11 0 -14 -3 -6 -6z"/>
<path d="M1000 1406 c0 -2 18 -6 40 -8 22 -2 40 0 40 4 0 5 -18 8 -40 8 -22 0
-40 -2 -40 -4z"/>
<path d="M1790 1270 c0 -11 -4 -20 -9 -20 -4 0 -19 -20 -32 -44 -13 -25 -26
-43 -29 -42 -3 2 -14 0 -25 -4 -18 -7 -19 -8 -2 -15 27 -11 45 1 62 42 19 45
44 75 57 67 6 -4 5 3 -1 15 -15 26 -21 27 -21 1z"/>
<path d="M2180 1076 c0 -9 7 -16 16 -16 9 0 14 5 12 12 -6 18 -28 21 -28 4z"/>
<path d="M1890 1021 c-17 -5 -21 -9 -13 -14 12 -7 53 7 53 18 0 6 -7 5 -40 -4z"/>
<path d="M1023 984 c-12 -13 -18 -24 -13 -24 11 0 40 29 40 41 0 12 -1 11 -27
-17z"/>
<path d="M2162 860 c0 -14 2 -19 5 -12 2 6 2 18 0 25 -3 6 -5 1 -5 -13z"/>
<path d="M2136 781 c-24 -27 -99 -57 -176 -71 -36 -7 -107 -21 -158 -31 -196
-40 -651 -17 -826 42 -50 17 -103 39 -118 50 -26 18 -28 18 -28 2 0 -10 4 -23
8 -30 23 -36 225 -103 371 -123 120 -16 449 -14 536 4 39 8 113 22 165 30 114
18 194 43 215 66 13 15 39 80 31 80 -2 0 -11 -9 -20 -19z m-981 -131 c3 -5 1
-10 -4 -10 -6 0 -11 5 -11 10 0 6 2 10 4 10 3 0 8 -4 11 -10z m145 -12 c22 -1
36 -4 31 -7 -15 -10 -91 0 -91 11 0 5 4 7 9 4 5 -4 28 -7 51 -8z m125 -8 c8
-13 -5 -13 -25 0 -13 8 -13 10 2 10 9 0 20 -4 23 -10z"/>
<path d="M840 695 c1 -37 86 -93 189 -124 159 -48 510 -69 691 -41 41 7 91 14
110 16 19 3 57 12 83 21 27 8 57 13 68 10 10 -3 17 -1 13 4 -3 5 19 19 48 32
29 13 60 32 68 42 13 17 11 17 -20 -2 -50 -31 -170 -69 -280 -88 -131 -24
-471 -29 -600 -9 -181 28 -320 77 -354 126 -9 12 -16 18 -16 13z"/>
</g>
</svg>
